<?xml version="1.0" encoding="UTF-8" standalone="no"?>
<!DOCTYPE svg PUBLIC "-//W3C//DTD SVG 20010904//EN"
              "http://www.w3.org/TR/2001/REC-SVG-20010904/DTD/svg10.dtd">

<svg xmlns="http://www.w3.org/2000/svg"
     width="4.16667in" height="4.16667in"
     viewBox="0 0 300 300">
  <path id="Seleção"
        fill="#000" stroke="black" stroke-width="1"
        d="M 139.22,0.88
           C 145.59,0.94 145.38,6.86 141.78,8.21
             137.82,9.68 133.57,4.53 139.22,0.88 Z
           M 151.43,2.03
           C 158.55,-0.54 158.72,6.19 156.40,7.97
             153.72,10.03 146.62,7.58 151.43,2.03 Z
           M 126.00,3.08
           C 131.72,4.30 131.14,9.21 127.85,10.34
             123.68,11.78 118.26,5.47 126.00,3.08 Z
           M 165.43,3.04
           C 172.25,0.93 172.92,7.95 168.86,9.34
             165.71,10.42 161.46,7.58 165.43,3.04 Z
           M 179.23,4.76
           C 186.98,3.34 185.96,10.11 182.72,11.72
             179.28,13.44 173.37,8.99 179.23,4.76 Z
           M 110.33,6.04
           C 117.46,3.90 117.82,11.20 114.69,12.87
             111.89,14.36 106.14,10.88 110.33,6.04 Z
           M 193.04,7.08
           C 199.73,7.45 198.01,13.27 194.86,14.34
             190.88,15.70 186.24,10.35 193.04,7.08 Z
           M 99.14,8.88
           C 105.82,8.94 105.23,15.12 101.78,16.34
             98.04,17.67 93.29,12.52 99.14,8.88 Z
           M 203.58,13.01
           C 209.78,11.05 210.56,17.06 207.57,18.93
             204.93,20.59 199.26,18.11 203.58,13.01 Z
           M 87.24,14.84
           C 93.75,14.38 94.20,19.94 90.76,21.38
             86.95,22.99 82.02,18.54 87.24,14.84 Z
           M 216.14,18.76
           C 224.04,17.32 221.94,24.56 218.86,25.75
             215.84,26.92 210.44,22.73 216.14,18.76 Z
           M 74.32,21.04
           C 81.47,18.91 81.81,26.17 78.69,27.92
             75.76,29.56 69.90,25.99 74.32,21.04 Z
           M 228.22,23.88
           C 234.47,23.94 234.69,29.81 230.87,31.21
             226.89,32.66 222.75,27.44 228.22,23.88 Z
           M 65.04,27.34
           C 71.32,27.65 70.34,34.19 66.86,35.04
             63.58,35.83 58.52,31.61 65.04,27.34 Z
           M 243.00,31.00
           C 243.36,32.21 243.92,33.73 244.02,34.98
             244.70,44.35 230.78,37.25 239.15,32.17
             240.44,31.39 241.60,31.30 243.00,31.00 Z
           M 53.43,36.08
           C 59.63,34.69 60.73,40.94 56.85,42.92
             53.41,44.68 48.99,40.87 53.43,36.08 Z
           M 248.47,41.03
           C 255.81,38.34 256.90,45.73 251.96,47.34
             248.44,48.49 245.15,45.21 248.47,41.03 Z
           M 43.22,44.79
           C 49.79,44.09 49.56,50.11 46.69,51.38
             43.15,52.94 37.38,48.89 43.22,44.79 Z
           M 259.14,49.88
           C 266.15,49.94 264.87,56.33 260.96,57.18
             257.56,57.91 253.64,53.29 259.14,49.88 Z
           M 34.15,55.08
           C 40.90,53.68 40.46,60.36 37.69,61.92
             34.82,63.53 28.63,60.02 34.15,55.08 Z
           M 265.33,61.03
           C 272.36,58.58 273.35,64.85 270.53,66.81
             267.47,68.94 260.89,66.16 265.33,61.03 Z
           M 27.31,64.44
           C 34.04,64.57 33.70,71.08 29.87,71.92
             26.20,72.73 23.06,68.02 27.31,64.44 Z
           M 273.22,70.92
           C 280.33,70.64 279.00,76.50 275.87,77.83
             272.66,79.20 267.93,74.37 273.22,70.92 Z
           M 20.24,77.04
           C 27.57,74.89 26.95,82.23 23.72,83.87
             20.88,85.31 15.13,82.06 20.24,77.04 Z
           M 181.00,77.52
           C 190.77,76.54 200.78,79.92 204.39,90.00
             206.12,94.85 207.88,107.66 203.57,111.40
             201.69,113.04 198.39,113.14 196.02,112.94
             187.07,112.20 192.96,102.19 186.77,97.75
             185.32,96.71 183.74,96.37 182.00,96.84
             171.85,99.62 170.92,117.37 175.07,125.00
             180.55,135.06 190.31,139.22 197.72,146.32
             208.35,156.52 213.53,169.22 212.96,184.00
             212.81,187.84 211.09,200.55 209.89,204.00
             208.23,208.79 204.80,213.49 200.99,216.79
             190.17,226.16 172.44,223.13 164.10,211.96
             159.35,205.60 157.04,194.85 157.00,187.00
             156.96,179.25 155.81,173.22 165.98,174.06
             171.49,174.51 172.25,178.16 172.83,183.00
             173.77,190.79 174.77,203.42 185.99,201.85
             191.14,201.13 193.90,195.64 194.83,191.00
             196.75,181.36 196.06,173.56 191.08,165.00
             184.95,154.48 171.45,149.84 163.49,139.00
             156.15,129.00 156.23,116.77 157.87,105.00
             158.47,100.67 158.83,96.96 160.92,93.00
             165.25,84.78 171.94,79.56 181.00,77.52 Z
           M 91.06,79.81
           C 94.51,79.17 100.59,78.52 103.15,81.51
             104.99,83.66 104.96,87.32 104.60,90.00
             104.60,90.00 104.60,104.00 104.60,104.00
             104.60,104.00 104.60,111.00 104.60,111.00
             104.60,111.00 104.60,119.00 104.60,119.00
             104.60,119.00 104.60,125.00 104.60,125.00
             104.60,125.00 104.60,156.00 104.60,156.00
             104.60,156.00 104.60,177.00 104.60,177.00
             104.60,177.00 104.60,184.00 104.60,184.00
             104.60,184.00 104.60,190.00 104.60,190.00
             104.64,194.17 103.87,199.39 108.14,201.98
             114.55,205.87 126.39,198.09 127.79,210.00
             129.44,224.01 120.02,221.07 110.00,221.00
             105.15,220.96 92.91,221.36 89.85,217.57
             87.23,214.32 87.48,203.32 87.62,199.00
             87.62,199.00 87.62,189.00 87.62,189.00
             87.62,189.00 87.62,173.00 87.62,173.00
             87.62,173.00 87.62,168.00 87.62,168.00
             87.62,168.00 87.62,155.00 87.62,155.00
             87.62,155.00 87.62,139.00 87.62,139.00
             87.62,139.00 87.62,125.00 87.62,125.00
             87.62,125.00 87.62,115.00 87.62,115.00
             87.62,115.00 87.62,100.00 87.62,100.00
             87.62,100.00 87.62,92.00 87.62,92.00
             87.78,86.84 86.05,82.74 91.06,79.81 Z
           M 278.47,83.03
           C 285.48,80.48 286.92,86.86 282.85,88.92
             279.81,90.46 275.01,87.58 278.47,83.03 Z
           M 13.60,88.04
           C 20.64,85.50 22.11,93.04 17.86,94.83
             14.79,96.13 10.60,92.50 13.60,88.04 Z
           M 284.14,93.79
           C 291.00,93.08 290.42,99.29 287.69,100.64
             284.47,102.22 278.07,97.89 284.14,93.79 Z
           M 12.05,98.99
           C 18.90,100.68 15.61,106.17 12.05,106.46
             7.97,106.78 6.12,100.70 12.05,98.99 Z
           M 289.09,105.87
           C 295.67,107.39 293.75,113.14 289.96,113.14
             286.44,113.14 282.84,107.92 289.09,105.87 Z
           M 8.13,112.08
           C 14.63,110.67 13.05,117.28 9.87,118.92
             6.43,120.70 2.77,116.72 8.13,112.08 Z
           M 291.15,119.08
           C 297.59,117.76 298.29,123.73 294.76,125.81
             290.96,128.05 285.59,123.99 291.15,119.08 Z
           M 5.14,125.04
           C 12.49,122.95 11.29,130.15 8.57,131.73
             5.51,133.52 -0.62,130.25 5.14,125.04 Z
           M 293.14,131.13
           C 300.19,129.91 299.62,137.04 295.87,138.34
             292.53,139.50 287.85,135.68 293.14,131.13 Z
           M 3.21,137.08
           C 9.47,135.71 9.49,142.36 7.40,143.96
             4.57,146.13 -2.91,142.74 3.21,137.08 Z
           M 294.13,142.84
           C 301.21,142.34 300.18,149.12 296.79,150.34
             293.20,151.63 288.45,146.55 294.13,142.84 Z
           M 8.79,149.76
           C 8.92,151.30 8.96,152.63 8.79,153.89
             5.37,164.25 -5.73,150.06 5.02,149.76
             5.02,149.76 8.79,149.76 8.79,149.76 Z
           M 292.43,156.04
           C 298.81,154.06 299.63,160.10 297.26,162.00
             294.70,164.05 287.63,161.52 292.43,156.04 Z
           M 3.60,163.03
           C 9.99,160.57 12.15,166.59 9.42,168.95
             6.28,171.67 0.09,168.27 3.60,163.03 Z
           M 292.14,167.84
           C 299.69,167.32 298.00,174.32 294.78,175.60
             291.26,177.00 286.21,171.65 292.14,167.84 Z
           M 8.86,174.08
           C 14.15,176.76 10.70,181.80 7.96,181.80
             4.40,181.80 0.45,174.79 8.86,174.08 Z
           M 289.22,180.13
           C 295.64,178.99 295.48,184.95 292.57,186.81
             289.07,189.04 283.47,185.18 289.22,180.13 Z
           M 14.00,185.00
           C 14.43,186.27 15.07,187.61 15.08,188.98
             15.12,198.65 0.26,190.65 10.11,186.00
             11.41,185.39 12.63,185.26 14.00,185.00 Z
           M 285.31,193.04
           C 292.20,190.96 292.49,197.82 288.78,199.77
             285.31,201.59 280.93,197.79 285.31,193.04 Z
           M 14.22,197.88
           C 20.63,197.94 20.64,204.25 17.69,205.29
             14.49,206.42 8.52,201.67 14.22,197.88 Z
           M 280.32,206.04
           C 287.79,203.81 287.02,211.39 283.73,212.75
             281.21,213.80 276.13,210.72 280.32,206.04 Z
           M 18.29,210.79
           C 25.28,210.03 25.43,216.91 20.98,218.12
             17.49,219.06 14.10,214.19 18.29,210.79 Z
           M 275.32,217.04
           C 282.39,214.93 282.85,221.98 278.86,223.34
             275.74,224.41 271.30,221.52 275.32,217.04 Z
           M 25.14,221.84
           C 32.48,221.33 31.42,228.19 27.86,229.29
             24.12,230.46 19.27,225.61 25.14,221.84 Z
           M 269.22,226.96
           C 276.18,227.25 275.46,233.81 270.96,234.42
             267.07,234.95 264.09,230.08 269.22,226.96 Z
           M 31.21,232.08
           C 37.50,230.71 38.03,237.30 34.81,238.79
             32.01,240.09 25.78,237.16 31.21,232.08 Z
           M 260.57,238.01
           C 267.25,235.91 267.91,243.17 264.69,244.87
             261.96,246.31 256.01,243.25 260.57,238.01 Z
           M 39.31,242.13
           C 45.53,241.01 46.82,246.75 42.85,248.77
             39.20,250.63 34.94,246.60 39.31,242.13 Z
           M 254.09,246.96
           C 260.97,247.24 260.42,253.82 255.95,254.96
             251.74,256.04 247.56,250.48 254.09,246.96 Z
           M 47.00,250.00
           C 48.41,250.30 49.56,250.39 50.85,251.17
             59.40,256.35 44.80,263.06 45.75,253.98
             45.88,252.75 46.58,251.16 47.00,250.00 Z
           M 244.09,255.96
           C 251.27,256.25 250.13,263.29 245.96,264.18
             242.28,264.96 237.53,259.52 244.09,255.96 Z
           M 58.32,261.03
           C 66.01,258.37 66.81,265.79 61.94,267.34
             58.51,268.44 54.42,265.42 58.32,261.03 Z
           M 232.22,263.76
           C 239.86,262.32 238.13,269.59 235.69,270.87
             232.59,272.50 226.24,268.09 232.22,263.76 Z
           M 69.35,268.04
           C 75.98,266.04 77.70,272.47 73.76,274.81
             69.69,277.23 65.57,272.60 69.35,268.04 Z
           M 220.32,272.08
           C 226.91,270.65 227.30,277.16 223.77,278.60
             220.97,279.74 216.20,276.56 220.32,272.08 Z
           M 82.15,275.08
           C 89.00,273.66 88.28,280.27 84.86,281.60
             82.04,282.69 76.99,279.69 82.15,275.08 Z
           M 210.04,277.17
           C 215.99,278.17 215.16,283.20 211.87,284.34
             207.93,285.72 203.44,280.09 210.04,277.17 Z
           M 93.31,280.08
           C 96.85,279.32 100.40,281.37 98.83,284.69
             96.87,288.83 87.43,286.25 93.31,280.08 Z
           M 196.43,283.11
           C 203.00,281.50 203.88,287.97 200.68,289.77
             197.56,291.53 192.07,287.91 196.43,283.11 Z
           M 106.14,284.79
           C 113.28,284.05 111.83,290.37 108.78,291.60
             105.71,292.83 100.48,288.62 106.14,284.79 Z
           M 184.43,287.04
           C 191.21,284.94 191.95,291.94 188.69,293.77
             185.56,295.52 180.10,292.01 184.43,287.04 Z
           M 117.60,289.04
           C 124.03,286.90 125.02,293.88 120.87,295.34
             117.40,296.57 114.70,293.13 117.60,289.04 Z
           M 171.31,289.07
           C 178.52,287.13 178.95,295.10 175.69,296.34
             172.72,297.48 166.94,293.90 171.31,289.07 Z
           M 131.31,290.04
           C 137.57,288.15 138.65,293.82 135.67,296.13
             131.97,298.99 126.58,295.17 131.31,290.04 Z
           M 159.21,289.92
           C 166.15,289.64 164.89,296.12 160.96,297.04
             157.33,297.88 153.95,293.27 159.21,289.92 Z
           M 146.13,291.72
           C 153.34,292.26 151.41,298.42 147.90,299.18
             144.24,299.97 139.53,294.50 146.13,291.72 Z" />
</svg>
